<svg data-v-fde0c5aa="" xmlns="http://www.w3.org/2000/svg" viewBox="0 0 300 300" class="font"><!----><defs data-v-fde0c5aa=""><!----></defs><rect data-v-fde0c5aa="" fill="#48463E" x="0" y="0" width="300px" height="300px" class="logo-background-square"></rect><defs data-v-fde0c5aa=""><!----></defs><g data-v-fde0c5aa="" id="394cffb7-4b88-49e5-9912-0ed0684d1460" fill="#CB594D" transform="matrix(15.569709711124425,0,0,15.569709711124425,13.22009885141302,0.37509502152989427)"><path d="M9.17 2.84L9.24 2.84L7.66 9.68Q7.33 11.11 6.64 12.00L6.64 12.00Q5.40 13.58 3.88 13.58L3.88 13.58Q2.38 13.58 1.86 12.00L1.86 12.00Q1.72 11.58 1.72 11.04L1.72 11.04Q1.72 10.44 1.89 9.68L1.89 9.68Q2.28 8.03 3.84 7.08L3.84 7.08L2.15 7.08L2.17 7.01L2.93 5.92L6.13 5.92L6.12 5.99L5.35 7.08Q4.40 7.66 3.96 8.20L3.96 8.20Q3.45 8.86 3.26 9.68L3.26 9.68Q3.07 10.51 3.07 11.03L3.07 11.03Q3.07 11.31 3.12 11.51L3.12 11.51Q3.37 12.41 4.15 12.41Q4.93 12.41 5.59 11.50L5.59 11.50Q6.00 10.95 6.29 9.68L6.29 9.68L7.73 3.46L9.17 2.84ZM12.66 12.48L11.89 13.58Q10.40 13.58 9.88 12.00L9.88 12.00Q9.74 11.58 9.74 11.05L9.74 11.05Q9.74 10.42 9.92 9.68L9.92 9.68Q10.25 8.25 10.94 7.36L10.94 7.36Q12.18 5.78 13.70 5.78Q15.22 5.78 15.72 7.36L15.72 7.36Q15.85 7.79 15.85 8.33L15.85 8.33Q15.85 8.94 15.68 9.68L15.68 9.68L15.03 12.48Q14.71 13.88 14.01 14.80L14.01 14.80Q12.81 16.38 11.26 16.38L11.26 16.38L9.61 16.38L9.63 16.31L10.40 15.22L11.53 15.22Q12.37 15.22 12.96 14.31L12.96 14.31Q13.41 13.63 13.67 12.48L13.67 12.48L14.31 9.68Q14.51 8.85 14.51 8.33L14.51 8.33Q14.51 8.05 14.45 7.85L14.45 7.85Q14.21 6.95 13.43 6.95Q12.65 6.95 11.98 7.85L11.98 7.85Q11.57 8.42 11.29 9.68L11.29 9.68Q11.09 10.52 11.09 11.05L11.09 11.05Q11.09 11.31 11.14 11.51L11.14 11.51Q11.39 12.41 12.15 12.41L12.15 12.41L12.68 12.41L12.66 12.48Z"></path></g><!----><!----></svg>